<?xml version="1.0" encoding="utf-8"?>
<!-- Generator: Adobe Illustrator 16.0.4, SVG Export Plug-In . SVG Version: 6.00 Build 0)  -->
<!DOCTYPE svg PUBLIC "-//W3C//DTD SVG 1.1 Basic//EN" "http://www.w3.org/Graphics/SVG/1.1/DTD/svg11-basic.dtd">
<svg version="1.1" baseProfile="basic" id="Layer_1"
	 xmlns="http://www.w3.org/2000/svg" xmlns:xlink="http://www.w3.org/1999/xlink" x="0px" y="0px" width="755.92px"
	 height="183.654px" viewBox="0 0 755.92 183.654" xml:space="preserve">
<g>
	<path fill="#939598" d="M411.63,124.075l-4.375-11.061h-21.797l-4.134,11.061h-14.798l23.628-56.324h13.205l23.388,56.324H411.63z
		 M396.518,82.79l-7.162,19.327h14.161L396.518,82.79z"/>
	<path fill="#939598" d="M431.437,124.075V67.751h13.686v44.466h21.797v11.857H431.437z"/>
	<path fill="#939598" d="M473.28,124.075V67.751h13.683v44.466h21.797v11.857H473.28z"/>
	<path fill="#939598" d="M515.12,124.075V67.751h13.685v56.324H515.12z"/>
	<path fill="#939598" d="M578.602,124.075l-4.374-11.061h-21.797l-4.134,11.061h-14.801l23.629-56.324h13.204l23.389,56.324H578.602
		z M563.488,82.79l-7.161,19.327h14.16L563.488,82.79z"/>
	<path fill="#939598" d="M634.207,124.075l-22.672-36.833h-0.239l0.321,36.833H598.41V67.751h15.511l22.595,36.751h0.237
		l-0.318-36.751h13.207v56.324H634.207z"/>
	<path fill="#939598" d="M701.588,123.08c-3.66,1.669-7.875,2.508-12.647,2.508c-4.351,0-8.368-0.717-12.053-2.148
		c-3.688-1.434-6.881-3.46-9.585-6.087c-2.707-2.628-4.828-5.77-6.365-9.426c-1.542-3.661-2.308-7.693-2.308-12.093
		c0-4.504,0.78-8.592,2.349-12.253c1.563-3.655,3.725-6.769,6.481-9.343c2.757-2.575,5.992-4.547,9.705-5.925
		c3.713-1.378,7.718-2.074,12.012-2.074c3.979,0,7.892,0.709,11.733,2.108c3.846,1.412,6.963,3.465,9.348,6.167l-9.228,9.229
		c-1.271-1.751-2.943-3.047-5.01-3.898c-2.071-0.845-4.192-1.271-6.364-1.271c-2.389,0-4.573,0.432-6.563,1.311
		c-1.989,0.872-3.699,2.08-5.132,3.621c-1.431,1.534-2.546,3.352-3.34,5.445c-0.797,2.094-1.195,4.392-1.195,6.883
		c0,2.548,0.398,4.879,1.195,7c0.794,2.121,1.895,3.939,3.302,5.451c1.403,1.507,3.086,2.689,5.048,3.541
		c1.963,0.844,4.112,1.271,6.445,1.271c2.706,0,5.063-0.527,7.08-1.588c2.014-1.062,3.631-2.439,4.854-4.141l9.465,8.91
		C708.322,119.142,705.249,121.413,701.588,123.08z"/>
	<path fill="#939598" d="M716.621,124.075V67.751h37.866v11.458h-24.739V89.87h23.39v10.896h-23.39v11.693h26.172v11.615H716.621z"
		/>
	<path fill="#939598" d="M243.62,124.075h-5.729v-51.23H219.04v-5.094h43.433v5.094H243.62V124.075z"/>
	<path fill="#939598" d="M270.907,67.751h5.725v24.422h30.709V67.751h5.725v56.324h-5.725V97.422h-30.709v26.652h-5.725V67.751z"/>
	<path fill="#939598" d="M333.745,118.981h30.151v5.094h-35.875V67.751h34.921v5.094h-29.197v19.329h27.288v5.094h-27.288V118.981z"
		/>
</g>
<g>
	<path fill-rule="evenodd" clip-rule="evenodd" fill="#811517" d="M194.005,80.801c-0.439,0.028-0.924,0.121-1.311-0.024
		c-0.504-0.19-1.257-0.073-1.481-0.608c-0.299-0.715-0.958-1.046-1.409-1.575c-0.473-0.556-1.289-0.818-1.956-1.209
		c0-0.17-0.083-0.446,0.015-0.545c0.536-0.545,0.259-0.924-0.175-1.333c-0.565-0.532-1.103-1.094-1.601-1.591
		c-0.084-1.279,0.024-2.372,1.36-2.893c0.108-0.042,0.081-0.433,0.128-0.744c-1-0.094-1.507-0.804-1.987-1.637
		c-0.737,0.695-1.426,0.396-2.092,0.028c-0.49-0.271-0.951-0.545-1.557-0.515c-0.528,0.028-0.967-0.266-1.352-0.621
		c-0.274-0.254-0.47-0.582-0.952-0.569c-0.221,0.005-0.495-0.267-0.665-0.479c-0.405-0.505-0.763-1.049-1.197-1.656
		c1.525-0.943,1.155-2.566,1.529-3.873c-0.521,0.072-0.952,0.132-1.246,0.173c-0.274-0.396-0.449-0.651-0.612-0.886
		c-0.397,0.344-0.752,0.651-1.17,1.012c-0.433-0.577-0.796-1.062-1.202-1.603c-0.646-0.044-1.421,0.172-2.004-0.312
		c-0.596-0.495-1.316-0.614-1.979-0.907c-1.105-0.487-2.333-0.906-3.095-2.239c1.249-0.218,0.892-1.344,1.292-2.06
		c0.168-0.3,0-0.84-0.124-1.238c-0.148-0.477-0.528-0.877-0.439-1.439c0.016-0.098-0.094-0.29-0.186-0.32
		c-0.838-0.281-1.173-1.127-1.886-1.61c0-0.615,0-1.237,0-1.651c-0.982-0.876-1.834-1.636-2.837-2.531
		c0.575-0.062,0.94-0.102,1.285-0.139c0.116-0.218,0.269-0.407,0.321-0.621c0.098-0.405,0.219-0.808-0.146-1.2
		c-0.374-0.401-0.478,0.285-0.848,0.136c-0.293-0.117-0.69-0.011-1.082,0.156c-0.987,0.422-1.897-0.093-2.768-0.562
		c-0.178-0.958-1.079-1.416-1.51-2.17c-0.596-1.045-1.514-1.788-2.221-2.719c-0.575-0.758-1.308-1.403-1.831-2.19
		c-0.275-0.414-0.438-0.678-0.986-0.818c-0.82-0.21-1.413-1.289-0.337-2.1c0.294-0.221,0.627-0.388,0.898-0.553
		c0-0.6,0-1.125,0-1.694c-0.917,0.117-1.215-0.651-1.746-1.063c0.13-0.333,0.24-0.613,0.42-1.077
		c-0.696,0.325-1.133,0.829-1.782,0.591c-0.197-0.297,0.119-0.924-0.6-0.918c-0.121,0.001-0.341-0.265-0.349-0.417
		c-0.036-0.632-0.489-0.307-0.76-0.347c-0.09-0.013-0.293,0.24-0.298,0.235c-0.685-0.73-1.789-0.395-2.53-1.014
		c-0.377-0.315-0.87-0.491-1.303-0.741c-2.285-1.321-4.779-1.885-7.387-2.026c-0.944-0.051-1.127-0.391-0.705-1.369
		c-0.14-0.131-0.26-0.322-0.428-0.385c-0.547-0.206-0.856-0.292-0.472-1.077c0.37-0.756,0.274-1.74,0.369-2.501
		c-0.43-0.534-0.779-0.968-1.176-1.462c-0.309,0-0.86,0.163-1.051-0.03c-0.613-0.619-1.411-0.653-2.142-0.903
		c-0.429-0.147-0.991-0.516-1.27-0.368c-0.602,0.321-1.324-0.139-1.827,0.404c-0.015,0.016-0.067-0.002-0.102-0.005
		c-0.207-0.208-0.614-0.574-0.593-0.6c0.324-0.405,0.196-0.733-0.072-1.089c-0.036-0.048,0.154-0.228,0.166-0.354
		c0.054-0.522,0.287-1.185,0.057-1.533c-0.238-0.359-0.062-0.787-0.361-1.036c-0.281-0.235-0.613-0.593-0.913-0.583
		c-0.534,0.017-0.726-0.237-0.923-0.618c-0.017-0.031-0.249,0.051-0.303,0.063c0.075,0.293,0.14,0.549,0.19,0.799
		c-0.005,0-0.008,0-0.013-0.001c0.001,0.006,0.001,0.011,0.003,0.017c-0.902,0.681-0.402,1.721-0.62,2.581
		c-0.548,0.385-0.848,1.064-1.704,1.331c0.077-1.117,0.044-2.157-1.366-2.478c-0.519,0.451-1.107,0.921-1.645,1.442
		c-0.076,0.074-0.151,0.14-0.229,0.194c-0.229,0.164-0.471,0.225-0.782,0.103c-0.082-0.335-0.335-0.64-0.372-0.981
		c-0.006-0.068-0.005-0.138,0.007-0.21c0.027-0.144,0.101-0.295,0.246-0.46c0.251-0.283-0.458-1.843-0.756-1.789
		c-0.908,0.167-1.344-0.709-2.117-0.858c-0.725,0.764-0.046,1.782-0.481,2.648c-0.175-0.255-0.447-0.476-0.414-0.635
		c0.148-0.718-0.332-1.065-0.798-1.509c-0.435,0.185-0.959-0.164-1.47,0.285c-0.212,0.187-0.814,0.17-1.174-0.263
		c-0.22-0.266-0.589-0.493-0.927-0.561c-0.869-0.175-1.757-0.252-2.523-0.353c-0.813-0.68-1.503-1.352-2.292-1.873
		c-0.324-0.214-0.783-0.82-1.327-0.162c-0.071,0.086-0.431-0.075-0.66-0.108c-0.417-0.061-1.003-0.311-1.219-0.128
		c-0.513,0.435-0.928,0.126-1.242-0.066c-0.625-0.382-1.234-0.67-1.975-0.559c-0.702,0.105-1.397-0.141-2.128,0.181
		c-0.925,0.406-1.433,0.13-1.872-0.836C96.67,5.999,96.41,5.623,96.418,5.1c0.006-0.366-0.108-0.915-0.797-1.028
		c-0.017,0.273-0.098,0.524-0.03,0.723c0.1,0.297,0.398,0.544,0.441,0.837c0.047,0.32-0.1,0.669-0.163,1.006
		c-0.025,0.132-0.052,0.266-0.06,0.312c-0.472,0.151-1.002,0.494-1.217,0.354c-0.415-0.27-0.612-0.061-0.969-0.004
		c-0.736,0.116-1.459,0.295-2.15,0.518c-0.719,0.231-1.512-0.102-2.193,0.39c-0.147,0.107-0.52-0.092-0.788-0.156
		c-0.267-0.063-0.532-0.131-0.822-0.204c-0.108-0.506,0.201-1.227-0.793-1.403c-0.141,0.119-0.346,0.292-0.53,0.448
		c0.288,0.526,0.48,0.877,0.715,1.307c-0.278-0.117-0.187,0.417-0.685,0.152c-0.819-0.437-1.874,0.18-2.743-0.371
		c-0.833,0.727-1.581-0.263-2.385-0.119c-0.508-0.66-0.929,0.135-1.4,0.084c-0.113,0.792-0.726,0.552-1.203,0.577
		c-0.387,0.021-0.792-0.047-1.162,0.039c-1.821,0.424-1.822,0.428-3.102-0.502c-0.252-0.184-0.561-0.295-0.855-0.412
		c-1.009-0.399-2.042-0.744-3.028-1.193c-0.637-0.291-1.249-0.573-1.966-0.583c-0.216-0.003-0.425-0.154-0.646-0.201
		c-0.448-0.095-0.83-0.336-1.307-0.418c-0.948-0.163-1.848-0.602-2.847-0.546c-0.455-0.653-1.358,0.072-1.812-0.588
		c-0.712,0.032-1.391-0.091-2.088-0.26c-0.647-0.157-1.363-0.033-2.047-0.033c-1.42,0-2.839,0-4.258,0
		c-0.294,0-0.61-0.072-0.877,0.012c-1.407,0.44-2.843,0.614-4.312,0.58c-0.449-0.01-1.248-0.123-1.542-0.301
		c-0.561-0.34-1.096-0.482-1.675-0.007c-0.2,0.163-0.504,0.302-0.75,0.286c-0.75-0.049-1.101,0.347-1.411,0.958
		c-0.188,0.372-0.519,0.72-0.87,0.951c-0.565,0.373-1.182,0.686-1.814,0.926c-0.23,0.088-0.565-0.147-0.856-0.164
		c-0.984-0.056-1.833-0.368-2.407-1.136c-0.572,0-1.098,0-1.615,0c-0.064,0.717-0.068,0.712-0.81,1.453
		c-0.085,0.085-0.061,0.272-0.134,0.38c-0.614,0.913-0.813,1.943-0.878,3.015c-0.03,0.51-0.065,0.992-0.235,1.512
		c-0.208,0.641-0.396,1.307-0.576,1.961c-0.193,0.706-0.121,1.469-0.638,2.099c-0.12,0.146-0.016,0.475-0.018,0.719
		c-0.002,0.243,0.092,0.585-0.032,0.711c-0.503,0.514-0.106,1.131-0.273,1.66c-0.181,0.572,0.601,1.051,0.11,1.667
		c-0.065,0.082,0.43,0.505,0.456,0.79c0.03,0.339-0.179,0.695-0.255,1.05c-0.037,0.172-0.006,0.358-0.006,0.859
		c0.239-0.497,0.33-0.685,0.423-0.878c0.593,0.667,0.593,0.667-0.129,1.016c0,0.134,0,0.279,0,0.423c0,0.147,0.052,0.32-0.009,0.436
		c-0.317,0.606-0.245,1.113,0.292,1.56c0.045,0.038-0.055,0.25-0.088,0.384c-0.379-0.161-0.496-0.817-1.087-0.483
		c0.556,0.577,0.951,1.172,0.91,2c-0.016,0.296,0.129,0.631,0.287,0.898c0.208,0.349-0.434,0.477-0.144,0.851
		c0.249,0.322,0.079,0.945,0.721,0.993c0.085,0.458-0.208,0.966,0.199,1.39c0.082,0.084,0.061,0.264,0.095,0.397
		c0.034,0.129,0.078,0.256,0.123,0.399c0.191-0.137,0.275-0.197,0.403-0.29c0.054,0.471,0.096,0.834,0.139,1.218
		c0.874-0.321,0.874-0.321,1.42,0.143c-0.191,0.065-0.361,0.124-0.556,0.19c0,0.748,0,1.502,0,2.15
		c0.375-0.064,0.709-0.122,1.015-0.174c0.102,0.473,0.106,0.873,0.273,1.186c0.212,0.399,0.601,0.428,0.99,0.168
		c-0.013-0.658,0.17-1.34-0.283-1.931c0.356-0.18,0.712-0.36,1.075-0.543c0.358,0.282,0.538,0.605,0.294,1.096
		c-0.293,0.593-0.89,1.169-0.246,1.893c-0.084,0.066-0.165,0.182-0.253,0.19c-0.397,0.037-0.307,0.346-0.268,0.541
		c0.053,0.258,0.21,0.494,0.337,0.773c-0.434,0.308-0.836,0.594-1.265,0.898c0.345,0.166,0.629,0.303,0.914,0.44
		c0.005,0.25-0.044,0.554,0.19,0.585c0.007,0.001,0.018-0.001,0.026,0c0.031,0.001,0.062,0.003,0.102-0.005
		c0.052-0.009,0.112-0.027,0.184-0.054c0.11-0.043,0.212-0.104,0.318-0.157c-0.438,0.952-0.97,1.76-1.543,2.539
		c-0.122,0.164-0.381,0.243-0.593,0.32c-0.452,0.167-0.858,0.186-1.384,0.064c-0.68-0.158-1.5-0.267-2.195,0.188
		c-0.853-0.558-1.777-0.076-2.447-0.229c-0.568,0.616-1.043,1.077-1.452,1.591c-0.396,0.5-0.98,0.769-1.372,1.303
		c-0.372,0.507-1.002,0.824-1.523,1.228c-0.645-0.292-1.215-0.765-1.972-0.614c-0.311-0.46-0.797-0.325-1.197-0.272
		c-0.413,0.055-0.861,0.147-1.025,0.695c-0.114,0.384-0.559,0.738-0.532,1.08c0.051,0.633-0.304,0.973-0.65,1.323
		c0.119,0.306,0.16,0.61,0.328,0.801c0.452,0.515,0.368,0.926-0.119,1.341c-0.095,0.081-0.119,0.242-0.187,0.359
		c-0.506,0.871-1.016,1.74-1.522,2.607c-0.496,0-0.935-0.027-1.368,0.008c-0.458,0.036-0.943-0.165-1.368,0.256
		c-0.256,0.254-0.652,0.366-1.221,0.665c0.501-1.109,0.349-2.226,1.654-2.986c-0.515,0-0.704,0.03-0.878-0.008
		c-0.187-0.041-0.358-0.147-0.559-0.233c-0.059,1.009-0.059,1.009-0.958,1.908c-1.232,0.494-1.501-0.722-2.259-1.09
		c-0.629,0.058-1.328-0.137-1.901,0.317c-0.123,0.097-0.127,0.346-0.248,0.716c0.303-0.244,0.417-0.334,0.584-0.469
		c0.031,0.237,0.069,0.406,0.051,0.413c-0.823,0.283-0.954,1.226-1.604,1.669c0.021,0.583-0.767,0.539-0.83,1.104
		c-0.047,0.414-0.258,0.809-0.396,1.213c0.576,0.448-0.114,0.749-0.186,1.097c-0.085,0.414-0.508,0.759-0.785,1.134
		c0.509,0.472,0.031,0.614-0.28,0.742c-0.894,0.367-1.364,1.216-2.198,1.696c0.981,1.419,1.305,3.055,2.392,4.279
		c0.078,0.087,0.04,0.271,0.073,0.407c0.084,0.354,0.178,0.707,0.286,1.13c-0.16,0.143-0.361,0.323-0.51,0.456
		c-0.544-0.25-0.982-0.451-1.516-0.695c-0.125,1.329,0.821,1.868,1.518,2.678c-0.109,0.374-0.235,0.81-0.373,1.286
		c-0.584-0.376-1.043-0.671-1.495-0.962c-1.504,1.333-1.674,1.639-1.739,3.07C3.011,75.683,2.9,75.73,2.848,75.773
		c-0.353-0.326-0.64-0.464-0.742,0.292c0.496,0.02,0.955,0.206,1.342-0.241c0.46,0.46,0.889-0.157,1.372-0.037
		c0.447,0.111,0.944,0.024,1.353,0.024c0.18,0.396-0.185,1.006,0.663,0.83c0-0.35,0-0.713,0-1.123
		c0.336,0.158,0.571,0.268,0.892,0.418c0.014,0.515-0.197,1.26,0.729,1.356c0.127-0.228,0.248-0.443,0.426-0.761
		c0.268,0.267,0.418,0.452,0.603,0.592c0.196,0.148,0.425,0.255,0.758,0.449c-0.507,0.419-0.754,0.842-0.532,1.389
		c-0.314,0.144-0.136,0.676-0.724,0.705c-0.825,0.04-1.05,0.928-1.219,1.517c-0.271,0.939-0.28,1.96-0.322,2.95
		c-0.017,0.399-0.116,0.725-0.31,1.054c-0.347,0.589-0.565,1.236-1.001,1.794c-0.441,0.567-0.948,1.245-1.002,1.908
		c-0.078,0.95-0.561,1.644-0.944,2.418c-0.119,0.239-0.269,0.548-0.483,0.639c-0.377,0.159-0.693,0.289-0.688,0.76
		c-0.89,0.558-1.13,1.604-1.711,2.391C0.91,95.638,0.3,96.203,0.363,97.048c0.042,0.554-0.025,1.09-0.226,1.659
		c-0.159,0.448-0.27,1.111,0.201,1.647c0.163,0.187,0.026,0.635,0.026,0.754c0.654,0.459,1.108,0.866,1.635,1.124
		c0.523,0.258,1.126,0.348,1.682,0.546c0.253,0.091,0.473,0.273,0.712,0.407c0.486,0.269,0.489,0.763,0.368,1.152
		c-0.199,0.643-0.45,1.313-0.855,1.837c-0.476,0.612-0.5,1.264-0.631,1.959c-0.121,0.64-0.93,1.049-0.841,1.846
		c0.005,0.048,0.022,0.116-0.002,0.144c-0.159,0.185-0.328,0.36-0.546,0.596c0,0.507,0,1.13,0,1.734
		c0.226,0.093,0.412,0.17,0.566,0.234c-0.265,0.659-0.482,1.198-0.696,1.73c0.504,0.187,0.886,0.329,1.267,0.471
		c0.067,0.117,0.174,0.227,0.197,0.353c0.248,1.365,1.287,2.021,2.361,2.643c0.283,0.164,1.229,0.88,1.417,1.11
		c0.29-0.341,0.735-0.508,0.963-0.131c0.165,0.271,0.285,0.333,0.543,0.465c0.549,0.283,1.097,0.232,1.657,0.269
		c0.273,0.018,0.646,0.011,0.795,0.176c0.648,0.717,1.465,0.278,2.193,0.406c0.313-0.457,0.791-0.232,1.2-0.301
		c0.405-0.068,0.8-0.268,1.202-0.272c1.117-0.016,2.167-0.381,3.25-0.551c0.075,0.179,0.14,0.349,0.214,0.513
		c0.502,1.116,0.911,2.244,0.77,3.509c-0.031,0.278,0.258,0.644,0.158,0.853c-0.187,0.388-0.22,0.646,0.019,1.031
		c0.157,0.253-0.006,0.7,0.144,0.962c0.666,1.159,0.231,2.232-0.373,3.154c-0.432,0.66-0.913,1.249-1.17,2.024
		c-0.113,0.339-0.571,0.585-0.911,0.814c-0.114,0.077-0.348-0.025-0.372-0.027c-0.312-1.005-0.583-1.875-0.907-2.914
		c-0.141-0.141-0.417-0.417-0.694-0.695c-0.024-1-0.024-1-0.831-2.149c-0.024,0.088-0.088,0.188-0.065,0.263
		c0.185,0.607,0.461,1.198,0.561,1.818c0.104,0.649-0.137,1.371,0.596,1.828c0.088,0.056,0,0.374,0.016,0.568
		c0.024,0.274,0.058,0.528,0.167,0.811c0.245,0.637,0.358,1.345,0.4,2.032c0.049,0.811,0.396,1.502,0.689,2.218
		c0.029,0.07,0.247,0.062,0.501,0.117c-0.075-0.967,0.055-1.834,0.81-2.475c0.081-0.067,0.033-0.271,0.078-0.402
		c0.482-1.408,1.308-2.64,1.993-4.111c0.256,0.251,0.445,0.355,0.506,0.509c0.264,0.676,0.699,1.37,0.681,2.047
		c-0.027,0.98,0.53,1.564,0.99,2.256c0.147,0.222,0.281,0.453,0.469,0.756c1.339-0.131,2.706-0.267,3.988-0.394
		c0.545,0.468,0.847,1.114,1.874,0.96c-1.118,0.711-0.407,1.453-0.164,1.962c0.367,0.768,0.544,1.729,1.312,2.135
		c0.108,0.551,0.08,1.09,0.322,1.442c0.233,0.338,0.333,0.636,0.404,1.022c0.072,0.387,0.271,0.78,0.51,1.102
		c0.342,0.459,0.574,0.916,0.656,1.502c0.061,0.427,0.294,0.897,0.598,1.202c0.402,0.404,1.064,0.573,1.402,1.008
		c0.417,0.536,1.028,0.486,1.519,0.723c1.419,0.683,2.935,1.142,4.551,1.06c0.23-0.012,0.487-0.018,0.682-0.121
		c1.046-0.555,2.027,0.142,3.042,0.125c0.232,0.447,0.728,0.609,1.043,0.967c0.125,0.141,0.355,0.306,0.339,0.436
		c-0.084,0.671,0.49,0.895,0.806,1.293c0.323,0.406,0.716,0.772,0.959,1.222c0.245,0.454,0.736,0.575,1.04,0.996
		c0.518,0.716,0.969,1.493,1.535,2.159c1.248,1.472,2.601,2.854,3.93,4.254c0.52,0.547,2.467,1.614,3.437,1.982
		c0.379,0.146,0.747,0.33,1.1,0.531c0.045,0.026-0.035,0.271-0.062,0.449c0.615,0.389,1.345,0.339,1.834,0.152
		c0.584,0.572,1.062,1.041,1.561,1.529c-0.069,0.148-0.18,0.387-0.362,0.776c1.162-0.142,1.677,0.757,2.541,1.056
		c-0.4,0.562-0.492,1.041-0.284,1.609c0.138-0.124,0.318-0.296,0.325-0.288c0.361,0.343,0.717,0.409,1.125,0.064
		c0.087-0.074,0.274-0.097,0.389-0.059c0.473,0.152,0.924,0.396,1.406,0.498c0.775,0.162,1.568,0.312,2.354,0.309
		c0.243-0.001,0.556-0.258,0.907-0.26c0.654-0.004,1.344,0.168,1.935-0.285c1.358,0.081,2.475-0.607,3.699-1.115
		c0.739,0.695,1.607,1.281,2.778,1.151c-0.464,0.373-0.858,0.688-1.262,1.013c0.198,0.389,0.359,0.706,0.533,1.046
		c0.482-0.202,0.929-0.441,1.407-0.57c0.304-0.082,0.652,0.003,0.98,0.012c-0.062,0.795,0.779,0.321,1.002,0.71
		c0.271,0.475,0.726,0.399,1.157,0.398c0.278,0,0.555,0,0.787,0c0.074,0.255,0.094,0.491,0.152,0.501
		c0.491,0.083,0.971,0.475,1.499,0.03c0.342,0.389,0.664,0.752,1.094,1.24c0,0.247,0,0.673,0,1.227
		c0.598-0.109,1.123-0.204,1.643-0.299c0.192,0.557,0.493,1.011,1.126,1.12c0.93,0.161,1.273-0.642,1.808-1.236
		c0.211,0.372,0.3,0.755,0.539,0.913c0.908,0.603,1.828,1.24,2.905,1.477c0.616,0.134,0.807,0.415,0.771,0.978
		c-0.009,0.139,0.017,0.28,0.021,0.346c0.602,0.358,1.151,0.687,1.729,1.032c1.166-0.416,2.341-0.966,3.699-0.904
		c0.278,0.012,0.364,0.421,0.834,0.146c1.008-0.592,1.877,0.654,2.94,0.506c0.218-0.03,0.655,0.205,0.686,0.375
		c0.191,1.019,0.671,0.156,1.059,0.194c0.071,0.059,0.201,0.13,0.281,0.237c0.22,0.296,0.393,0.631,0.634,0.907
		c0.311,0.354,0.651,0.85,1.195,0.579c0.609-0.306,1.102,0.074,1.195,0.409c0.312,1.112,1.195,1.638,2.011,2.221
		c0.493,0.353,0.792,0.851,1.216,1.245c0.395,0.365,0.726,0.379,1.104,0.023c0.417-0.391,0.753-0.81,0.804-1.436
		c0.027-0.336,0.264-0.655,0.402-0.972c0.344,0,0.634,0,0.788,0c1.149-1.33,2.235-2.587,3.279-3.796
		c0.571,0,1.227-0.195,1.508,0.045c0.445,0.382,1.15-0.042,1.291,0.386c0.178,0.542,0.565,0.676,1.002,0.943
		c0,0.493,0,1.016,0,1.529c0.158,0.011,0.295,0.061,0.342,0.017c0.893-0.857,1.858-1.229,3.055-0.6
		c0.153,0.082,0.488-0.021,0.65-0.148c0.338-0.268,0.604-0.717,1.031-0.128c0.37-0.172,0.779-0.291,1.098-0.531
		c0.453-0.343,0.761-0.81,0.821-1.416c0.027-0.267,0.079-0.588,0.244-0.77c0.25-0.273,0.269-0.57,0.361-0.89
		c0.174-0.603,0.393-1.26,0.8-1.706c0.315-0.345,0.945-0.405,1.494-0.614c-0.033,0.201-0.458,0.722-0.578,0.774
		c0.095,0.722-0.081,1.482,0.129,2.369c0.534-0.381,1.012-0.58,1.078-1.202c0.016-0.147,0.127-0.354,0.25-0.41
		c1.338-0.621,1.444-0.742,1.591-2.023c0.228-0.026,0.459-0.053,0.713-0.081c0.128-0.385,0.111-0.797,0.467-1.143
		c0.252-0.246,0.19-0.787,0.361-1.154c0.074-0.156,0.519-0.329,0.562-0.28c0.449,0.489,0.811,0.224,1.261-0.013
		c0.455-0.238,0.664,0.127,0.758,0.497c0.304-0.169,0.754-0.567,0.9-0.477c0.695,0.431,1.543,0.261,2.23,0.67
		c0.235,0.139,0.57,0.109,1.047,0.188c-1.667-1.667-1.667-1.667-1.533-3.247c0.715,0,1.437,0,2.19,0
		c0.77-1.161,0.988-2.428,0.937-3.76c-0.005-0.126-0.102-0.248-0.159-0.372c-0.602-1.318-1.195-2.644-2.39-3.563
		c-0.153-0.119-0.314-0.228-0.423-0.307c0.138-0.425,0.307-0.725,0.322-1.03c0.077-1.621-0.211-1.365,0.855-2.134
		c0.343,0,0.688-0.024,1.028,0.007c0.418,0.04,0.738-0.235,0.745-0.52c0.017-0.787,0.384-1.016,1.095-0.969
		c0.158,0.011,0.325-0.146,0.49-0.221c0.514-0.231,1.03-0.373,1.616-0.373c0.782,0,1.679,0.317,2.265-0.556
		c0.031-0.047,0.191-0.032,0.282-0.009c0.511,0.123,0.756-0.305,1.126-0.486c0.41-0.201,0.863-0.245,1.208-0.643
		c0.681-0.783,1.579-1.38,2.542-1.634c1.504-0.397,2.46-1.765,4.013-2.05c0.356-0.065,0.65-0.568,0.936-0.903
		c0.3-0.35,0.937,0.07,1.112-0.514c1.25-0.534,2.206-1.835,3.757-1.396c0.585-0.75,0.814-1.605,1.308-2.335
		c0.752-1.11,0.706-1.169,1.75-1.501c0.044-0.016,0.101,0.01,0.146-0.003c0.835-0.264,1.052-0.735,0.792-1.603
		c-0.235-0.782-0.428-1.579-0.659-2.439c0.624-0.168,1.195-0.323,1.814-0.491c0-0.26,0.117-0.633-0.021-0.818
		c-0.653-0.885-0.491-2.059-1.089-2.929c-0.273-0.398,0.529-0.704-0.007-1.033c0.22-0.287,0.488-0.419,0.87-0.392
		c0.531,0.037,1.068,0.01,1.567,0.01c0.542-0.514,0.781-1.087,0.744-1.8c-0.035-0.684-0.04-1.372,0.007-2.055
		c0.021-0.302,0.206-0.593,0.296-0.836c0.86-0.071,1.7,0.282,2.262-0.789c0.378,0.416,0.667,0.735,0.955,1.054
		c0.657-0.549,0.759-0.966,0.419-1.766c-0.176-0.416-0.347-0.836-0.523-1.26c0.419-0.208,0.743-0.367,1.132-0.561
		c0.52,0.548,1.028,1.071,1.524,1.607c0.326,0.351,0.696,0.342,0.997,0.045c0.567-0.562,1.347-0.544,1.988-0.812
		c0.044-0.438-0.029-0.93,0.163-1.271c0.202-0.363,0.657-0.585,1.041-0.9c-0.851-0.762-1.716-1.537-2.703-2.421
		c0.515,0.114,0.868,0.193,1.478,0.328c-0.391-0.562-0.624-0.895-0.866-1.241c0.54-0.487,0.642-1.514,1.678-1.103
		c0.287-0.829,0.909-1.316,1.497-1.777c0.955-0.75,0.989-0.705,2.145-0.017c0.157,0.093,0.32,0.173,0.46,0.249
		c0.265-0.15,0.52-0.295,0.958-0.543c-0.923-0.707-1.941-1.173-2.216-2.271c0.257-0.226,0.383-0.507,0.848-0.232
		c0.898,0.529,0.934,0.47,1.678,0.248c-0.606-0.27-0.606-0.27-0.201-1.028c-0.743-0.677-0.928-1.775-1.77-2.457
		c-0.233-0.188-0.266-0.668-0.315-1.024c-0.052-0.37-0.011-0.754-0.011-1.074c-0.958-0.364-1.706-0.794-2.167-1.775
		c0.661,0,1.216,0,1.806,0c0.801,0.801,0.801,0.801,0.907,0.696c0.038-0.259,0.077-0.516,0.113-0.756
		c0.385,0.197,0.696,0.357,1.102,0.566c-0.285-0.933,0.724-1.163,0.951-1.893c-0.257-0.165-0.466-0.393-0.713-0.443
		c-0.962-0.198-1.82-0.602-2.592-1.193c-0.212-0.162-0.502-0.343-0.553-0.563c-0.06-0.258,0.101-0.568,0.227-1.127
		c-0.355,0.354-0.542,0.54-0.75,0.748c-0.126-0.288-0.276-0.632-0.452-1.034c0.379-0.056,0.649-0.097,1.138-0.169
		c-0.326-0.308-0.52-0.491-0.686-0.648c0.241-0.374,0.704-0.783,0.739-1.224c0.041-0.526,0.296-0.799,0.609-1.083
		c0.383-0.349,0.465-0.703,0.125-1.11c-0.216-0.26-0.078-0.427,0.11-0.609c0.163-0.159,0.302-0.342,0.432-0.49
		c-0.169-0.279-0.285-0.473-0.386-0.642c0.375-0.55,0.742-0.99,1.432-0.857c0.704,0.136,0.875-0.387,1.083-0.864
		c0.478-0.019,0.889-0.045,1.33,0.345c0.379,0.334,0.921,0.926,1.592,0.29c0.07-0.066,0.321,0.056,0.488,0.09
		c0.259,0.053,0.519,0.105,0.834,0.17c0-0.428,0-0.757,0-1.036c-0.696-0.539-1.424-0.899-2.342-0.785
		c-0.261,0.031-0.568-0.252-0.843-0.411c-0.672-0.385-1.338-0.78-2.042-1.194c-0.23-0.753,0.429-1.169,0.895-1.43
		c0.831-0.467,1.336-1.227,2.023-1.775c-0.043-0.592,0.167-1.192-0.426-1.633c-0.306-0.228-0.249-0.577-0.01-0.888
		c0.86-1.118,1.751-2.208,2.665-3.286c0.698-0.824,1.629-1.026,2.551-1.316c0.031-0.01,0.12,0.243,0.218,0.332
		c0.095,0.085,0.248,0.17,0.357,0.15c0.089-0.016,0.192-0.177,0.215-0.289c0.036-0.173,0.01-0.359,0.01-0.518
		c0.365-0.054,0.619-0.092,0.973-0.145C195.222,80.842,194.634,80.76,194.005,80.801z"/>
	<path fill-rule="evenodd" clip-rule="evenodd" fill="#811517" d="M119.666,2.684c0.017,0.387-0.055,0.786,0.016,1.161
		c0.124,0.649,0.145,1.375,0.796,1.769c0.481-0.141,0.659-0.399,0.67-0.85c0.019-0.859-0.337-1.605-0.695-2.333
		c-0.269-0.546-0.551-1.042-0.514-1.691c0.014-0.239-0.241-0.493-0.373-0.74c-0.191,0.354-0.302,0.71-0.171,0.9
		C119.787,1.471,119.638,2.083,119.666,2.684z"/>
	<path fill-rule="evenodd" clip-rule="evenodd" fill="#811517" d="M33.431,39.377c0.034-0.375-0.53-1.589-0.936-2.009
		C32.03,38.403,32.931,38.797,33.431,39.377z"/>
	<path fill-rule="evenodd" clip-rule="evenodd" fill="#811517" d="M197.757,86.392c-0.064-0.009-0.14-0.012-0.227-0.008
		c-0.026-0.075-0.042-0.158-0.088-0.218c-0.014-0.019-0.116,0.03-0.178,0.049c0.045,0.058,0.091,0.116,0.136,0.174
		c0.044,0,0.087,0,0.13,0c0.015,0.006,0.023,0.011,0.04,0.016c0,0.256,0,0.527,0,0.964c0.25-0.162,0.508-0.24,0.527-0.358
		C198.141,86.751,198.213,86.394,197.757,86.392z"/>
	<path fill-rule="evenodd" clip-rule="evenodd" fill="#811517" d="M194.593,86.334c0.122,0.138,0.245,0.279,0.365,0.417
		c0.221-0.079,0.346-0.125,0.471-0.169c-0.187-0.162-0.367-0.335-0.57-0.474C194.833,86.091,194.685,86.254,194.593,86.334z"/>
	<path fill-rule="evenodd" clip-rule="evenodd" fill="#811517" d="M144.694,170.184c0,0.26,0,0.521,0,0.78
		c0.087-0.009,0.173-0.018,0.26-0.026c-0.037-0.256-0.074-0.514-0.111-0.77C144.793,170.173,144.744,170.178,144.694,170.184z"/>
	<path fill-rule="evenodd" clip-rule="evenodd" fill="#811517" d="M34.239,34.97c0,0.196,0,0.392,0,0.587c0.049,0,0.098,0,0.147,0
		c0-0.196,0-0.392,0-0.587C34.337,34.97,34.289,34.97,34.239,34.97z"/>
	<path fill-rule="evenodd" clip-rule="evenodd" fill="#811517" d="M76.238,169.15c-0.005,0.025,0.059,0.064,0.091,0.098
		c0.036-0.064,0.071-0.128,0.104-0.19c-0.039-0.038-0.072-0.071-0.104-0.104C76.296,169.019,76.253,169.081,76.238,169.15z"/>
	<path fill-rule="evenodd" clip-rule="evenodd" fill="#811517" d="M169.967,135.36c-0.005,0.025,0.06,0.064,0.092,0.098
		c0.036-0.064,0.071-0.128,0.104-0.189c-0.039-0.039-0.071-0.072-0.104-0.104C170.026,135.229,169.982,135.292,169.967,135.36z"/>
	<path fill-rule="evenodd" clip-rule="evenodd" fill="#811517" d="M185.926,96.084c0.032-0.032,0.097-0.072,0.091-0.097
		c-0.015-0.068-0.059-0.132-0.091-0.197c-0.033,0.033-0.065,0.065-0.105,0.104C185.855,95.958,185.891,96.02,185.926,96.084z"/>
	<path fill-rule="evenodd" clip-rule="evenodd" fill="#811517" d="M8.897,55.668c0.039-0.069,0.07-0.12,0.1-0.162
		c0.01,0.01,0.021,0.02,0.031,0.031c0.045-0.058,0.096-0.113,0.131-0.177c0.001-0.002-0.001-0.004-0.005-0.006
		c-0.004-0.016-0.054-0.056-0.085-0.086c-0.057,0.046-0.113,0.092-0.171,0.139c0.021,0.021,0.042,0.042,0.063,0.063
		c-0.023,0.043-0.044,0.081-0.063,0.112c0-0.015,0-0.03,0-0.044c-0.076,0.027-0.161,0.042-0.223,0.089
		c-0.019,0.014,0.03,0.116,0.049,0.178C8.781,55.759,8.839,55.713,8.897,55.668z"/>
	<path fill-rule="evenodd" clip-rule="evenodd" fill="#811517" d="M31.727,28.87c-0.014-0.018-0.116,0.031-0.178,0.049
		c0.045,0.058,0.09,0.116,0.135,0.173c0.069,0.039,0.121,0.071,0.163,0.1c-0.011,0.01-0.021,0.021-0.031,0.032
		c0.058,0.045,0.113,0.096,0.177,0.13c0.002,0.001,0.005-0.001,0.007-0.005c0.015-0.004,0.055-0.054,0.086-0.084
		c-0.046-0.058-0.092-0.114-0.139-0.172c-0.021,0.021-0.042,0.042-0.063,0.064c-0.043-0.024-0.081-0.045-0.112-0.064
		c0.015,0,0.03,0,0.045,0C31.788,29.017,31.773,28.932,31.727,28.87z"/>
</g>
<g>
	<path fill="#FFFFFF" d="M108.612,32.068c1.372-0.563,2.173-0.829,2.173-0.829S109.989,31.494,108.612,32.068z"/>
	<path fill="#FFFFFF" d="M153.042,70.138h-32.888c0,0-10.729,14.178-5.04,22.236c3.231,4.578,8.397,6.184,12.423,6.883
		l-13.042,17.786l-3.269-5.658V67.348h15.257V52.526h-15.257V35.958h-10.278c3.199-1.898,5.908-3.159,7.663-3.89
		c-1.798,0.737-4.608,2.008-7.95,3.89h-5.564v3.44c-3.625,2.451-7.525,5.514-11.298,9.293c-3.973-0.862-7.692-1.782-10.037-2.624
		c15.158-11.26,36.449-14.831,36.449-14.831s-21.484-0.207-39.2,13.334c-1.364-0.928-2.67-2.006-3.313-2.553
		c12.812-9.591,28.578-13.357,41.422-13.153c-38.671-8.289-85.952,32.72-66.226,85.147c21.446,56.999,89.065,41.784,100.486,27.771
		c-10.805,8.172-29.917,13.539-48.743,10.126c-1.757-0.933-9.826-5.597-16.771-15.791c0.91,0.153,1.867,0.297,2.85,0.435l0.21,2.506
		h44.466l1.701-20.312h21.587v-5.013h-9.591v-9.54c0,0,0.01-4.655,4.424-4.651c4.215-0.544,10.553-1.829,14.322-7.169
		C163.527,84.315,153.042,70.138,153.042,70.138z M121.684,57.322v5.23H106.21v40.149l-3.049-5.277l-3.047,5.273V62.552H84.64v-5.23
		h15.474V40.754h6.096v16.567H121.684z M63.617,113.516l2.179-30.956l19.62-6.973c0,0-3.319,2.778-3.925,10.028
		c-0.229,2.748,0.745,11.75,1.722,19.68l-5.772-7.871l1.349,16.098L63.617,113.516z M60.566,84.305l-1.308,18.31
		c0,0-6.927-0.19-7.848-4.795C49.667,89.102,60.566,84.305,60.566,84.305z M53.152,82.975c0.564-3.161,1.354-6.583,2.461-10.087
		c0.427,0.394,0.88,0.782,1.382,1.156c1.829,1.365,4.385,2.499,7.368,3.446L61,78.644C57.802,79.964,55.221,81.43,53.152,82.975z
		 M95.098,80.929c-2.109-0.277-4.396-0.596-6.789-0.957c2.208-4.7,5.39-8.311,5.39-8.311l-2.179-3.484l-21.146,7.251
		c2.295-7.886,5.648-14.482,9.467-19.957v11.875h15.256V80.929z M89.434,113.782c-1.299-8.569-3.68-25.6-2.71-29.477
		c0.246-0.982,0.578-1.947,0.955-2.885c2.633,0.217,5.137,0.375,7.419,0.49v29.471l-3.271,5.662L89.434,113.782z M95.098,39.846
		v11.071c-2.935-0.534-6.544-1.22-10.069-1.965C88.367,45.262,91.831,42.263,95.098,39.846z M83.913,50.221
		c3.769,0.574,7.888,1.006,11.185,1.301v1.004H82.024C82.646,51.733,83.276,50.962,83.913,50.221z M72.647,46.929
		c0.669,0.387,1.419,0.776,2.258,1.162c1.626,0.746,4.43,1.38,7.615,1.91c-0.77,0.811-1.532,1.653-2.283,2.526h-0.396v0.485
		c-5.094,6.032-9.648,13.514-12.532,22.71c-3.38-0.986-6.132-2.068-7.718-3.237c-1.126-0.828-2.115-1.668-3-2.496
		c2.354-6.462,5.854-13.019,11.047-18.525C69.176,49.832,70.866,48.327,72.647,46.929z M64.277,44.759
		c1.045-0.912,2.127-1.768,3.221-2.594c0.315,0.624,1.05,1.757,2.67,3.071c-2.131,1.696-4.201,3.582-6.164,5.708
		c-4.575,4.963-7.875,10.501-10.25,16.026c-1.868-2.287-2.822-4.162-3.182-4.963C54.104,55.333,58.839,49.505,64.277,44.759z
		 M48.516,111.678c-7.281-18.685-5.2-35.771,1.896-49.369c0.085,1.297,0.506,4.144,2.344,7.125
		c-2.558,6.675-3.833,13.195-4.455,18.513c-4.641,6.938-1.706,14.075,1.802,16.412c2.616,1.746,9.156,3.925,9.156,3.925
		l-0.873,10.464h8.553c1.698,5.621,4.017,10.391,6.602,14.403c-0.108-0.024-0.224-0.053-0.333-0.078
		c-10.136-2.536-16.817-7.746-18.955-9.598C52.132,119.922,50.205,116.005,48.516,111.678z M94.505,151.885
		c-14.923-2.739-29.646-11.02-39.9-27.823c2.391,2.577,8.704,8.464,18.602,11.089c0.622,0.164,1.297,0.32,2.013,0.47
		C82.973,146.316,92.294,150.902,94.505,151.885z M76.367,133.8c-2.554-4.17-4.86-9.159-6.524-15.053h9.383l1.332,15.893
		C79.108,134.368,77.7,134.087,76.367,133.8z M120.552,134.049l-34.829-0.004l-1.308-18.312l7.845,10.028l10.9-18.53l10.898,18.53
		l7.848-10.028L120.552,134.049z M133.859,104.195v9.54h-6.344l1.197-14.291c0.338,0.048,0.667,0.093,0.98,0.131
		C134.011,99.594,133.859,104.195,133.859,104.195z M153.042,89.757c-4.359,6.104-16.566,5.667-16.566,5.667
		s-12.208,0.437-16.566-5.667c-2.71-3.793-0.213-9.986,2.269-14.398l28.248,0.013C150.426,75.372,157.61,83.361,153.042,89.757z"/>
	<path fill="#FFFFFF" d="M143.33,131.878v-0.042c0.589-0.179,1.072-0.618,1.072-1.338c0-0.527-0.176-0.896-0.503-1.141
		c-0.329-0.237-0.876-0.412-1.707-0.412c-0.657,0-1.096,0.064-1.556,0.129v5.497h0.877v-2.366h0.611c0.7,0,1.053,0.264,1.182,0.962
		c0.111,0.724,0.242,1.227,0.373,1.404h0.919c-0.086-0.178-0.218-0.507-0.348-1.358C144.138,132.402,143.81,131.964,143.33,131.878z
		 M142.146,131.529h-0.634v-1.864c0.153-0.021,0.349-0.042,0.634-0.042c0.985,0,1.335,0.481,1.335,0.963
		C143.482,131.265,142.87,131.529,142.146,131.529z"/>
	<path fill="#FFFFFF" d="M142.453,126.775h-0.022c-2.693,0-4.88,2.191-4.88,4.929c0,2.78,2.188,4.945,4.88,4.945
		c2.714,0,4.86-2.165,4.86-4.945C147.291,128.966,145.145,126.775,142.453,126.775z M142.453,135.883
		c-2.19,0-3.963-1.839-3.963-4.18c0-2.3,1.773-4.162,3.941-4.162h0.022c2.189,0,3.94,1.862,3.94,4.185
		C146.393,134.044,144.642,135.905,142.453,135.883z"/>
</g>
</svg>
